<svg width="24" height="24" viewBox="0 0 24 24" fill="none" xmlns="http://www.w3.org/2000/svg">
<g id="translate_FILL0_wght300_GRAD0_opsz24 1">
<path id="Vector" d="M11.925 21.225L16.125 10.15H18.05L22.25 21.225H20.325L19.35 18.4H14.875L13.875 21.225H11.925ZM15.425 16.8H18.75L17.125 12.225H17.05L15.425 16.8ZM4.625 18.45L3.325 17.15L8 12.5C7.41667 11.85 6.90833 11.179 6.475 10.487C6.04167 9.79569 5.65833 9.06669 5.325 8.30002H7.25C7.53333 8.86669 7.83333 9.37069 8.15 9.81202C8.46667 10.254 8.84167 10.7167 9.275 11.2C9.95833 10.4667 10.525 9.71269 10.975 8.93802C11.425 8.16269 11.8 7.33336 12.1 6.45002H1.875V4.62502H8.325V2.77502H10.175V4.62502H16.625V6.45002H13.95C13.6167 7.55002 13.175 8.61236 12.625 9.63702C12.075 10.6624 11.3917 11.6334 10.575 12.55L12.8 14.8L12.1 16.7L9.25 13.85L4.625 18.45Z" fill="#5A6A85"/>
</g>
</svg>
